<mxfile modified="2023-04-20T21:43:32.871Z" host="app.diagrams.net" agent="Mozilla/5.0 (Macintosh; Intel Mac OS X 10_15_7) AppleWebKit/537.36 (KHTML, like Gecko) Chrome/110.0.0.0 Safari/537.36" etag="T59eRMttUhgY1HJYoYm8" version="21.2.1" type="device">
  <diagram id="Ht1M8jgEwFfnCIfOTk4-" name="Page-1">
    <mxGraphModel dx="1007" dy="1125" grid="1" gridSize="10" guides="1" tooltips="1" connect="1" arrows="1" fold="1" page="1" pageScale="1" pageWidth="1169" pageHeight="827" math="0" shadow="0">
      <root>
        <mxCell id="0" />
        <mxCell id="1" parent="0" />
        <mxCell id="UEzPUAAOIrF-is8g5C7q-74" value="AWS Cloud - us-west-2" style="points=[[0,0],[0.25,0],[0.5,0],[0.75,0],[1,0],[1,0.25],[1,0.5],[1,0.75],[1,1],[0.75,1],[0.5,1],[0.25,1],[0,1],[0,0.75],[0,0.5],[0,0.25]];outlineConnect=0;gradientColor=none;html=1;whiteSpace=wrap;fontSize=12;fontStyle=0;shape=mxgraph.aws4.group;grIcon=mxgraph.aws4.group_aws_cloud_alt;strokeColor=#232F3E;fillColor=none;verticalAlign=top;align=left;spacingLeft=30;fontColor=#232F3E;dashed=0;labelBackgroundColor=#ffffff;container=1;pointerEvents=0;collapsible=0;recursiveResize=0;" parent="1" vertex="1">
          <mxGeometry x="50" y="80" width="1100" height="650" as="geometry" />
        </mxCell>
        <mxCell id="Kpzl0_Ol_438FhJztG7P-3" value="&lt;a style=&quot;background-color: rgb(255, 255, 255); border-collapse: separate; border-spacing: 0px; caption-side: top; cursor: auto; direction: ltr; empty-cells: show; font-variant-numeric: normal; font-variant-east-asian: normal; font-stretch: normal; hyphens: none; list-style: outside none disc; tab-size: 8; text-align-last: auto; text-shadow: none; visibility: visible; box-sizing: border-box; font-size: 14px; line-height: var(--font-body-m-line-height-i7xxvv, 22px); font-family: &amp;quot;Amazon Ember&amp;quot;, &amp;quot;Helvetica Neue&amp;quot;, Roboto, Arial, sans-serif; -webkit-font-smoothing: inherit; display: inline; text-decoration-line: none; text-decoration-color: transparent; transition-property: color, text-decoration; transition-duration: var(--motion-duration-refresh-only-medium-5flen2, 165ms);&quot; href=&quot;https://us-west-2.console.aws.amazon.com/vpc/home?region=us-west-2#VpcDetails:VpcId=vpc-0d8b34c958ed62e6d&quot; class=&quot;awsui_link_4c84z_qo00k_93 awsui_variant-secondary_4c84z_qo00k_140 awsui_font-size-body-m_4c84z_qo00k_414&quot;&gt;vpc-0d8b34c958ed62e6d&lt;/a&gt;&amp;nbsp;(&lt;span style=&quot;color: rgb(22, 25, 31); font-family: &amp;quot;Amazon Ember&amp;quot;, &amp;quot;Helvetica Neue&amp;quot;, Roboto, Arial, sans-serif; font-size: 14px; background-color: rgb(255, 255, 255);&quot;&gt;10.50.68.0/22&lt;/span&gt;&lt;span style=&quot;color: rgb(22, 25, 31); font-family: &amp;quot;Amazon Ember&amp;quot;, &amp;quot;Helvetica Neue&amp;quot;, Roboto, Arial, sans-serif; font-size: 14px; background-color: rgb(255, 255, 255);&quot;&gt;)&lt;/span&gt;&lt;span style=&quot;color: rgb(22, 25, 31); font-family: &amp;quot;Amazon Ember&amp;quot;, &amp;quot;Helvetica Neue&amp;quot;, Roboto, Arial, sans-serif; font-size: 14px; background-color: rgb(255, 255, 255);&quot;&gt;&amp;nbsp;|&amp;nbsp;MSFC-IMPACT-APT-Prod-VPC&lt;/span&gt;" style="points=[[0,0],[0.25,0],[0.5,0],[0.75,0],[1,0],[1,0.25],[1,0.5],[1,0.75],[1,1],[0.75,1],[0.5,1],[0.25,1],[0,1],[0,0.75],[0,0.5],[0,0.25]];outlineConnect=0;gradientColor=none;html=1;whiteSpace=wrap;fontSize=12;fontStyle=0;container=1;pointerEvents=0;collapsible=0;recursiveResize=0;shape=mxgraph.aws4.group;grIcon=mxgraph.aws4.group_vpc;strokeColor=#248814;fillColor=none;verticalAlign=top;align=left;spacingLeft=30;fontColor=#AAB7B8;dashed=0;" vertex="1" parent="UEzPUAAOIrF-is8g5C7q-74">
          <mxGeometry x="10" y="50" width="1060" height="590" as="geometry" />
        </mxCell>
        <mxCell id="Kpzl0_Ol_438FhJztG7P-11" value="Private subnet" style="points=[[0,0],[0.25,0],[0.5,0],[0.75,0],[1,0],[1,0.25],[1,0.5],[1,0.75],[1,1],[0.75,1],[0.5,1],[0.25,1],[0,1],[0,0.75],[0,0.5],[0,0.25]];outlineConnect=0;gradientColor=none;html=1;whiteSpace=wrap;fontSize=12;fontStyle=0;container=1;pointerEvents=0;collapsible=0;recursiveResize=0;shape=mxgraph.aws4.group;grIcon=mxgraph.aws4.group_security_group;grStroke=0;strokeColor=#147EBA;fillColor=#E6F2F8;verticalAlign=top;align=left;spacingLeft=30;fontColor=#147EBA;dashed=0;" vertex="1" parent="Kpzl0_Ol_438FhJztG7P-3">
          <mxGeometry x="30" y="90" width="1000" height="470" as="geometry" />
        </mxCell>
        <mxCell id="Kpzl0_Ol_438FhJztG7P-16" value="Lambda Security group" style="fillColor=none;strokeColor=#DD3522;verticalAlign=top;fontStyle=0;fontColor=#DD3522;whiteSpace=wrap;html=1;" vertex="1" parent="Kpzl0_Ol_438FhJztG7P-11">
          <mxGeometry x="530" y="40" width="440" height="380" as="geometry" />
        </mxCell>
        <mxCell id="Kpzl0_Ol_438FhJztG7P-23" style="edgeStyle=orthogonalEdgeStyle;rounded=0;orthogonalLoop=1;jettySize=auto;html=1;" edge="1" parent="Kpzl0_Ol_438FhJztG7P-11" source="Kpzl0_Ol_438FhJztG7P-15" target="Kpzl0_Ol_438FhJztG7P-2">
          <mxGeometry relative="1" as="geometry" />
        </mxCell>
        <mxCell id="Kpzl0_Ol_438FhJztG7P-15" value="Application Lambda" style="outlineConnect=0;dashed=0;verticalLabelPosition=bottom;verticalAlign=top;align=center;html=1;shape=mxgraph.aws3.lambda_function;fillColor=#F58534;gradientColor=none;" vertex="1" parent="Kpzl0_Ol_438FhJztG7P-11">
          <mxGeometry x="670" y="70" width="110" height="100" as="geometry" />
        </mxCell>
        <mxCell id="Kpzl0_Ol_438FhJztG7P-17" value="Opensearch Security Group&lt;br&gt;* Access is managed through SG" style="fillColor=none;strokeColor=#DD3522;verticalAlign=top;fontStyle=0;fontColor=#DD3522;whiteSpace=wrap;html=1;" vertex="1" parent="Kpzl0_Ol_438FhJztG7P-11">
          <mxGeometry x="20" y="40" width="390" height="380" as="geometry" />
        </mxCell>
        <mxCell id="Kpzl0_Ol_438FhJztG7P-24" style="edgeStyle=orthogonalEdgeStyle;rounded=0;orthogonalLoop=1;jettySize=auto;html=1;entryX=1;entryY=0.5;entryDx=0;entryDy=0;entryPerimeter=0;" edge="1" parent="Kpzl0_Ol_438FhJztG7P-11" source="Kpzl0_Ol_438FhJztG7P-2" target="Kpzl0_Ol_438FhJztG7P-14">
          <mxGeometry relative="1" as="geometry">
            <Array as="points">
              <mxPoint x="270" y="125" />
            </Array>
          </mxGeometry>
        </mxCell>
        <mxCell id="Kpzl0_Ol_438FhJztG7P-2" value="Opensearch Domain Endpoint&lt;br&gt;https://vpc-domain-name-identifier.region.es.amazonaws.com" style="sketch=0;outlineConnect=0;fontColor=#232F3E;gradientColor=none;fillColor=#4D27AA;strokeColor=none;dashed=0;verticalLabelPosition=bottom;verticalAlign=top;align=center;html=1;fontSize=12;fontStyle=0;aspect=fixed;pointerEvents=1;shape=mxgraph.aws4.endpoint;" vertex="1" parent="Kpzl0_Ol_438FhJztG7P-11">
          <mxGeometry x="270" y="180" width="66" height="66" as="geometry" />
        </mxCell>
        <mxCell id="Kpzl0_Ol_438FhJztG7P-13" value="Opensearch Data Node" style="sketch=0;outlineConnect=0;fontColor=#232F3E;gradientColor=none;fillColor=#4D27AA;strokeColor=none;dashed=0;verticalLabelPosition=bottom;verticalAlign=top;align=center;html=1;fontSize=12;fontStyle=0;aspect=fixed;pointerEvents=1;shape=mxgraph.aws4.opensearch_service_data_node;" vertex="1" parent="Kpzl0_Ol_438FhJztG7P-11">
          <mxGeometry x="70" y="96" width="54" height="54" as="geometry" />
        </mxCell>
        <mxCell id="Kpzl0_Ol_438FhJztG7P-21" style="edgeStyle=orthogonalEdgeStyle;rounded=0;orthogonalLoop=1;jettySize=auto;html=1;entryX=1.093;entryY=0.556;entryDx=0;entryDy=0;entryPerimeter=0;" edge="1" parent="Kpzl0_Ol_438FhJztG7P-11" source="Kpzl0_Ol_438FhJztG7P-14" target="Kpzl0_Ol_438FhJztG7P-13">
          <mxGeometry relative="1" as="geometry" />
        </mxCell>
        <mxCell id="Kpzl0_Ol_438FhJztG7P-14" value="ENI w/ Private IP" style="outlineConnect=0;dashed=0;verticalLabelPosition=bottom;verticalAlign=top;align=center;html=1;shape=mxgraph.aws3.elastic_network_interface;fillColor=#F58534;gradientColor=none;" vertex="1" parent="Kpzl0_Ol_438FhJztG7P-11">
          <mxGeometry x="190.16419023136248" y="100.15692307692308" width="49.66580976863753" height="49.84615384615385" as="geometry" />
        </mxCell>
        <mxCell id="Kpzl0_Ol_438FhJztG7P-26" value="Opensearch SG rules" style="shape=table;startSize=30;container=1;collapsible=0;childLayout=tableLayout;strokeColor=default;fontSize=16;rowLines=1;" vertex="1" parent="Kpzl0_Ol_438FhJztG7P-11">
          <mxGeometry x="35" y="300" width="360" height="117" as="geometry" />
        </mxCell>
        <mxCell id="Kpzl0_Ol_438FhJztG7P-27" value="" style="shape=tableRow;horizontal=0;startSize=0;swimlaneHead=0;swimlaneBody=0;strokeColor=inherit;top=0;left=0;bottom=0;right=0;collapsible=0;dropTarget=0;fillColor=none;points=[[0,0.5],[1,0.5]];portConstraint=eastwest;fontSize=16;" vertex="1" parent="Kpzl0_Ol_438FhJztG7P-26">
          <mxGeometry y="30" width="360" height="43" as="geometry" />
        </mxCell>
        <mxCell id="Kpzl0_Ol_438FhJztG7P-28" value="Protocol" style="shape=partialRectangle;html=1;whiteSpace=wrap;connectable=0;strokeColor=inherit;overflow=hidden;fillColor=none;top=0;left=0;bottom=0;right=0;pointerEvents=1;fontSize=16;" vertex="1" parent="Kpzl0_Ol_438FhJztG7P-27">
          <mxGeometry width="90" height="43" as="geometry">
            <mxRectangle width="90" height="43" as="alternateBounds" />
          </mxGeometry>
        </mxCell>
        <mxCell id="Kpzl0_Ol_438FhJztG7P-29" value="Ports" style="shape=partialRectangle;html=1;whiteSpace=wrap;connectable=0;strokeColor=inherit;overflow=hidden;fillColor=none;top=0;left=0;bottom=0;right=0;pointerEvents=1;fontSize=16;" vertex="1" parent="Kpzl0_Ol_438FhJztG7P-27">
          <mxGeometry x="90" width="90" height="43" as="geometry">
            <mxRectangle width="90" height="43" as="alternateBounds" />
          </mxGeometry>
        </mxCell>
        <mxCell id="Kpzl0_Ol_438FhJztG7P-30" value="Source" style="shape=partialRectangle;html=1;whiteSpace=wrap;connectable=0;strokeColor=inherit;overflow=hidden;fillColor=none;top=0;left=0;bottom=0;right=0;pointerEvents=1;fontSize=16;" vertex="1" parent="Kpzl0_Ol_438FhJztG7P-27">
          <mxGeometry x="180" width="90" height="43" as="geometry">
            <mxRectangle width="90" height="43" as="alternateBounds" />
          </mxGeometry>
        </mxCell>
        <mxCell id="Kpzl0_Ol_438FhJztG7P-53" value="IO" style="shape=partialRectangle;html=1;whiteSpace=wrap;connectable=0;strokeColor=inherit;overflow=hidden;fillColor=none;top=0;left=0;bottom=0;right=0;pointerEvents=1;fontSize=16;" vertex="1" parent="Kpzl0_Ol_438FhJztG7P-27">
          <mxGeometry x="270" width="90" height="43" as="geometry">
            <mxRectangle width="90" height="43" as="alternateBounds" />
          </mxGeometry>
        </mxCell>
        <mxCell id="Kpzl0_Ol_438FhJztG7P-31" value="" style="shape=tableRow;horizontal=0;startSize=0;swimlaneHead=0;swimlaneBody=0;strokeColor=inherit;top=0;left=0;bottom=0;right=0;collapsible=0;dropTarget=0;fillColor=none;points=[[0,0.5],[1,0.5]];portConstraint=eastwest;fontSize=16;" vertex="1" parent="Kpzl0_Ol_438FhJztG7P-26">
          <mxGeometry y="73" width="360" height="44" as="geometry" />
        </mxCell>
        <mxCell id="Kpzl0_Ol_438FhJztG7P-32" value="TCP" style="shape=partialRectangle;html=1;whiteSpace=wrap;connectable=0;strokeColor=inherit;overflow=hidden;fillColor=none;top=0;left=0;bottom=0;right=0;pointerEvents=1;fontSize=16;" vertex="1" parent="Kpzl0_Ol_438FhJztG7P-31">
          <mxGeometry width="90" height="44" as="geometry">
            <mxRectangle width="90" height="44" as="alternateBounds" />
          </mxGeometry>
        </mxCell>
        <mxCell id="Kpzl0_Ol_438FhJztG7P-33" value="9200" style="shape=partialRectangle;html=1;whiteSpace=wrap;connectable=0;strokeColor=inherit;overflow=hidden;fillColor=none;top=0;left=0;bottom=0;right=0;pointerEvents=1;fontSize=16;" vertex="1" parent="Kpzl0_Ol_438FhJztG7P-31">
          <mxGeometry x="90" width="90" height="44" as="geometry">
            <mxRectangle width="90" height="44" as="alternateBounds" />
          </mxGeometry>
        </mxCell>
        <mxCell id="Kpzl0_Ol_438FhJztG7P-34" value="Lambda SG" style="shape=partialRectangle;html=1;whiteSpace=wrap;connectable=0;strokeColor=inherit;overflow=hidden;fillColor=none;top=0;left=0;bottom=0;right=0;pointerEvents=1;fontSize=16;" vertex="1" parent="Kpzl0_Ol_438FhJztG7P-31">
          <mxGeometry x="180" width="90" height="44" as="geometry">
            <mxRectangle width="90" height="44" as="alternateBounds" />
          </mxGeometry>
        </mxCell>
        <mxCell id="Kpzl0_Ol_438FhJztG7P-54" value="Inbound" style="shape=partialRectangle;html=1;whiteSpace=wrap;connectable=0;strokeColor=inherit;overflow=hidden;fillColor=none;top=0;left=0;bottom=0;right=0;pointerEvents=1;fontSize=16;" vertex="1" parent="Kpzl0_Ol_438FhJztG7P-31">
          <mxGeometry x="270" width="90" height="44" as="geometry">
            <mxRectangle width="90" height="44" as="alternateBounds" />
          </mxGeometry>
        </mxCell>
        <mxCell id="Kpzl0_Ol_438FhJztG7P-39" value="Lambda SG rules" style="shape=table;startSize=30;container=1;collapsible=0;childLayout=tableLayout;strokeColor=default;fontSize=16;rowLines=1;" vertex="1" parent="Kpzl0_Ol_438FhJztG7P-11">
          <mxGeometry x="570" y="280" width="360" height="117" as="geometry" />
        </mxCell>
        <mxCell id="Kpzl0_Ol_438FhJztG7P-40" value="" style="shape=tableRow;horizontal=0;startSize=0;swimlaneHead=0;swimlaneBody=0;strokeColor=inherit;top=0;left=0;bottom=0;right=0;collapsible=0;dropTarget=0;fillColor=none;points=[[0,0.5],[1,0.5]];portConstraint=eastwest;fontSize=16;" vertex="1" parent="Kpzl0_Ol_438FhJztG7P-39">
          <mxGeometry y="30" width="360" height="43" as="geometry" />
        </mxCell>
        <mxCell id="Kpzl0_Ol_438FhJztG7P-41" value="Protocol" style="shape=partialRectangle;html=1;whiteSpace=wrap;connectable=0;strokeColor=inherit;overflow=hidden;fillColor=none;top=0;left=0;bottom=0;right=0;pointerEvents=1;fontSize=16;" vertex="1" parent="Kpzl0_Ol_438FhJztG7P-40">
          <mxGeometry width="90" height="43" as="geometry">
            <mxRectangle width="90" height="43" as="alternateBounds" />
          </mxGeometry>
        </mxCell>
        <mxCell id="Kpzl0_Ol_438FhJztG7P-42" value="Ports" style="shape=partialRectangle;html=1;whiteSpace=wrap;connectable=0;strokeColor=inherit;overflow=hidden;fillColor=none;top=0;left=0;bottom=0;right=0;pointerEvents=1;fontSize=16;" vertex="1" parent="Kpzl0_Ol_438FhJztG7P-40">
          <mxGeometry x="90" width="90" height="43" as="geometry">
            <mxRectangle width="90" height="43" as="alternateBounds" />
          </mxGeometry>
        </mxCell>
        <mxCell id="Kpzl0_Ol_438FhJztG7P-43" value="Dest" style="shape=partialRectangle;html=1;whiteSpace=wrap;connectable=0;strokeColor=inherit;overflow=hidden;fillColor=none;top=0;left=0;bottom=0;right=0;pointerEvents=1;fontSize=16;" vertex="1" parent="Kpzl0_Ol_438FhJztG7P-40">
          <mxGeometry x="180" width="90" height="43" as="geometry">
            <mxRectangle width="90" height="43" as="alternateBounds" />
          </mxGeometry>
        </mxCell>
        <mxCell id="Kpzl0_Ol_438FhJztG7P-56" value="IO" style="shape=partialRectangle;html=1;whiteSpace=wrap;connectable=0;strokeColor=inherit;overflow=hidden;fillColor=none;top=0;left=0;bottom=0;right=0;pointerEvents=1;fontSize=16;" vertex="1" parent="Kpzl0_Ol_438FhJztG7P-40">
          <mxGeometry x="270" width="90" height="43" as="geometry">
            <mxRectangle width="90" height="43" as="alternateBounds" />
          </mxGeometry>
        </mxCell>
        <mxCell id="Kpzl0_Ol_438FhJztG7P-44" value="" style="shape=tableRow;horizontal=0;startSize=0;swimlaneHead=0;swimlaneBody=0;strokeColor=inherit;top=0;left=0;bottom=0;right=0;collapsible=0;dropTarget=0;fillColor=none;points=[[0,0.5],[1,0.5]];portConstraint=eastwest;fontSize=16;" vertex="1" parent="Kpzl0_Ol_438FhJztG7P-39">
          <mxGeometry y="73" width="360" height="44" as="geometry" />
        </mxCell>
        <mxCell id="Kpzl0_Ol_438FhJztG7P-45" value="TCP" style="shape=partialRectangle;html=1;whiteSpace=wrap;connectable=0;strokeColor=inherit;overflow=hidden;fillColor=none;top=0;left=0;bottom=0;right=0;pointerEvents=1;fontSize=16;" vertex="1" parent="Kpzl0_Ol_438FhJztG7P-44">
          <mxGeometry width="90" height="44" as="geometry">
            <mxRectangle width="90" height="44" as="alternateBounds" />
          </mxGeometry>
        </mxCell>
        <mxCell id="Kpzl0_Ol_438FhJztG7P-46" value="9200" style="shape=partialRectangle;html=1;whiteSpace=wrap;connectable=0;strokeColor=inherit;overflow=hidden;fillColor=none;top=0;left=0;bottom=0;right=0;pointerEvents=1;fontSize=16;" vertex="1" parent="Kpzl0_Ol_438FhJztG7P-44">
          <mxGeometry x="90" width="90" height="44" as="geometry">
            <mxRectangle width="90" height="44" as="alternateBounds" />
          </mxGeometry>
        </mxCell>
        <mxCell id="Kpzl0_Ol_438FhJztG7P-47" value="Opensearch SG" style="shape=partialRectangle;html=1;whiteSpace=wrap;connectable=0;strokeColor=inherit;overflow=hidden;fillColor=none;top=0;left=0;bottom=0;right=0;pointerEvents=1;fontSize=16;" vertex="1" parent="Kpzl0_Ol_438FhJztG7P-44">
          <mxGeometry x="180" width="90" height="44" as="geometry">
            <mxRectangle width="90" height="44" as="alternateBounds" />
          </mxGeometry>
        </mxCell>
        <mxCell id="Kpzl0_Ol_438FhJztG7P-57" value="Outbound" style="shape=partialRectangle;html=1;whiteSpace=wrap;connectable=0;strokeColor=inherit;overflow=hidden;fillColor=none;top=0;left=0;bottom=0;right=0;pointerEvents=1;fontSize=16;" vertex="1" parent="Kpzl0_Ol_438FhJztG7P-44">
          <mxGeometry x="270" width="90" height="44" as="geometry">
            <mxRectangle width="90" height="44" as="alternateBounds" />
          </mxGeometry>
        </mxCell>
        <mxCell id="Kpzl0_Ol_438FhJztG7P-5" value="Public subnet" style="points=[[0,0],[0.25,0],[0.5,0],[0.75,0],[1,0],[1,0.25],[1,0.5],[1,0.75],[1,1],[0.75,1],[0.5,1],[0.25,1],[0,1],[0,0.75],[0,0.5],[0,0.25]];outlineConnect=0;gradientColor=none;html=1;whiteSpace=wrap;fontSize=12;fontStyle=0;container=1;pointerEvents=0;collapsible=0;recursiveResize=0;shape=mxgraph.aws4.group;grIcon=mxgraph.aws4.group_security_group;grStroke=0;strokeColor=#248814;fillColor=#E9F3E6;verticalAlign=top;align=left;spacingLeft=30;fontColor=#248814;dashed=0;" vertex="1" parent="1">
          <mxGeometry x="410" y="1111" width="130" height="130" as="geometry" />
        </mxCell>
        <mxCell id="Kpzl0_Ol_438FhJztG7P-59" value="&lt;div&gt;&lt;font face=&quot;Söhne, ui-sans-serif, system-ui, -apple-system, Segoe UI, Roboto, Ubuntu, Cantarell, Noto Sans, sans-serif, Helvetica Neue, Arial, Apple Color Emoji, Segoe UI Emoji, Segoe UI Symbol, Noto Color Emoji&quot;&gt;&lt;span style=&quot;font-size: 16px;&quot;&gt;Note on Network ACL&lt;/span&gt;&lt;/font&gt;&lt;/div&gt;&lt;ol style=&quot;border: 0px solid rgb(217, 217, 227); box-sizing: border-box; --tw-border-spacing-x:0; --tw-border-spacing-y:0; --tw-translate-x:0; --tw-translate-y:0; --tw-rotate:0; --tw-skew-x:0; --tw-skew-y:0; --tw-scale-x:1; --tw-scale-y:1; --tw-pan-x: ; --tw-pan-y: ; --tw-pinch-zoom: ; --tw-scroll-snap-strictness:proximity; --tw-ordinal: ; --tw-slashed-zero: ; --tw-numeric-figure: ; --tw-numeric-spacing: ; --tw-numeric-fraction: ; --tw-ring-inset: ; --tw-ring-offset-width:0px; --tw-ring-offset-color:#fff; --tw-ring-color:rgba(59,130,246,0.5); --tw-ring-offset-shadow:0 0 transparent; --tw-ring-shadow:0 0 transparent; --tw-shadow:0 0 transparent; --tw-shadow-colored:0 0 transparent; --tw-blur: ; --tw-brightness: ; --tw-contrast: ; --tw-grayscale: ; --tw-hue-rotate: ; --tw-invert: ; --tw-saturate: ; --tw-sepia: ; --tw-drop-shadow: ; --tw-backdrop-blur: ; --tw-backdrop-brightness: ; --tw-backdrop-contrast: ; --tw-backdrop-grayscale: ; --tw-backdrop-hue-rotate: ; --tw-backdrop-invert: ; --tw-backdrop-opacity: ; --tw-backdrop-saturate: ; --tw-backdrop-sepia: ; list-style: decimal; margin: 1.25em 0px; padding: 0px 0px 0px 1rem; counter-reset: item 0; display: flex; flex-direction: column; font-family: Söhne, ui-sans-serif, system-ui, -apple-system, &amp;quot;Segoe UI&amp;quot;, Roboto, Ubuntu, Cantarell, &amp;quot;Noto Sans&amp;quot;, sans-serif, &amp;quot;Helvetica Neue&amp;quot;, Arial, &amp;quot;Apple Color Emoji&amp;quot;, &amp;quot;Segoe UI Emoji&amp;quot;, &amp;quot;Segoe UI Symbol&amp;quot;, &amp;quot;Noto Color Emoji&amp;quot;; font-size: 16px; font-style: normal; font-variant-ligatures: normal; font-variant-caps: normal; font-weight: 400; letter-spacing: normal; orphans: 2; text-align: start; text-indent: 0px; text-transform: none; widows: 2; word-spacing: 0px; -webkit-text-stroke-width: 0px; text-decoration-thickness: initial; text-decoration-style: initial; text-decoration-color: initial;&quot;&gt;&lt;li style=&quot;border: 0px solid rgb(217, 217, 227); box-sizing: border-box; --tw-border-spacing-x:0; --tw-border-spacing-y:0; --tw-translate-x:0; --tw-translate-y:0; --tw-rotate:0; --tw-skew-x:0; --tw-skew-y:0; --tw-scale-x:1; --tw-scale-y:1; --tw-pan-x: ; --tw-pan-y: ; --tw-pinch-zoom: ; --tw-scroll-snap-strictness:proximity; --tw-ordinal: ; --tw-slashed-zero: ; --tw-numeric-figure: ; --tw-numeric-spacing: ; --tw-numeric-fraction: ; --tw-ring-inset: ; --tw-ring-offset-width:0px; --tw-ring-offset-color:#fff; --tw-ring-color:rgba(59,130,246,0.5); --tw-ring-offset-shadow:0 0 transparent; --tw-ring-shadow:0 0 transparent; --tw-shadow:0 0 transparent; --tw-shadow-colored:0 0 transparent; --tw-blur: ; --tw-brightness: ; --tw-contrast: ; --tw-grayscale: ; --tw-hue-rotate: ; --tw-invert: ; --tw-saturate: ; --tw-sepia: ; --tw-drop-shadow: ; --tw-backdrop-blur: ; --tw-backdrop-brightness: ; --tw-backdrop-contrast: ; --tw-backdrop-grayscale: ; --tw-backdrop-hue-rotate: ; --tw-backdrop-invert: ; --tw-backdrop-opacity: ; --tw-backdrop-saturate: ; --tw-backdrop-sepia: ; margin: 0px; padding-left: 0.375em;&quot;&gt;Inbound rules: Allow traffic from the Lambda function to the OpenSearch Service on the specific port used by OpenSearch (usually TCP port 9200).&lt;/li&gt;&lt;li style=&quot;border: 0px solid rgb(217, 217, 227); box-sizing: border-box; --tw-border-spacing-x:0; --tw-border-spacing-y:0; --tw-translate-x:0; --tw-translate-y:0; --tw-rotate:0; --tw-skew-x:0; --tw-skew-y:0; --tw-scale-x:1; --tw-scale-y:1; --tw-pan-x: ; --tw-pan-y: ; --tw-pinch-zoom: ; --tw-scroll-snap-strictness:proximity; --tw-ordinal: ; --tw-slashed-zero: ; --tw-numeric-figure: ; --tw-numeric-spacing: ; --tw-numeric-fraction: ; --tw-ring-inset: ; --tw-ring-offset-width:0px; --tw-ring-offset-color:#fff; --tw-ring-color:rgba(59,130,246,0.5); --tw-ring-offset-shadow:0 0 transparent; --tw-ring-shadow:0 0 transparent; --tw-shadow:0 0 transparent; --tw-shadow-colored:0 0 transparent; --tw-blur: ; --tw-brightness: ; --tw-contrast: ; --tw-grayscale: ; --tw-hue-rotate: ; --tw-invert: ; --tw-saturate: ; --tw-sepia: ; --tw-drop-shadow: ; --tw-backdrop-blur: ; --tw-backdrop-brightness: ; --tw-backdrop-contrast: ; --tw-backdrop-grayscale: ; --tw-backdrop-hue-rotate: ; --tw-backdrop-invert: ; --tw-backdrop-opacity: ; --tw-backdrop-saturate: ; --tw-backdrop-sepia: ; margin: 0px; padding-left: 0.375em;&quot;&gt;Outbound rules: Allow traffic from the OpenSearch Service to the Lambda function on the ephemeral port range (1024-65535) for the response.&lt;/li&gt;&lt;/ol&gt;" style="text;whiteSpace=wrap;html=1;" vertex="1" parent="1">
          <mxGeometry x="110" y="780" width="560" height="180" as="geometry" />
        </mxCell>
      </root>
    </mxGraphModel>
  </diagram>
</mxfile>
